<?xml version="1.0" encoding="utf-8"?><svg width="522" height="494" viewBox="0 0 522 494" xmlns="http://www.w3.org/2000/svg" xmlns:xlink="http://www.w3.org/1999/xlink"><svg width="14" height="11" viewBox="-2 -2 14 11" id="arrow-down" x="494" y="336" xmlns="http://www.w3.org/2000/svg"><path d="m.215 1.484 3.879 3.825.014.016.597.588.06.05a.426.426 0 0 0 .136.06l.073.012.038.002.035-.002.046-.007.078-.023a.427.427 0 0 0 .14-.092l.599-.59.009-.012 3.873-3.82A.842.842 0 0 0 9.786.3l-.08-.07A.854.854 0 0 0 8.587.3L5.009 3.826 1.416.283A.855.855 0 0 0 .295.213L.206.29a.843.843 0 0 0 .009 1.193z" fill="#6B8392"/></svg><svg width="14" height="10" viewBox="-2 -2 14 10" id="arrow-up" x="508" y="336" xmlns="http://www.w3.org/2000/svg"><path d="M9.785 4.59 5.906.763 5.892.748 5.295.16l-.06-.05a.426.426 0 0 0-.136-.06L5.026.037h-.038l-.035.002-.046.006-.078.023a.427.427 0 0 0-.14.092L4.09.75l-.009.012-3.873 3.82a.842.842 0 0 0 .006 1.192l.08.07a.854.854 0 0 0 1.119-.07l3.578-3.527L8.584 5.79a.855.855 0 0 0 1.121.07l.089-.078a.843.843 0 0 0-.009-1.193z" fill="#6B8392"/></svg><svg width="28" height="26" viewBox="-2 -2 28 26" id="calendar" x="494" xmlns="http://www.w3.org/2000/svg"><defs><path d="M8 4v1h8V4h1v1h2.5a.5.5 0 0 1 .5.5v12a.5.5 0 0 1-.5.5h-15a.5.5 0 0 1-.5-.5v-12a.5.5 0 0 1 .5-.5H7V4h1zm11 11h-2v2h2v-2zM7 15H5v2h2v-2zm3 0H8v2h2v-2zm3 0h-2v2h2v-2zm3 0h-2v2h2v-2zm-9-3H5v2h2v-2zm12 0h-2v2h2v-2zm-9 0H8v2h2v-2zm3 0h-2v2h2v-2zm3 0h-2v2h2v-2zM7 9H5v2h2V9zm12 0h-2v2h2V9zm-9 0H8v2h2V9zm1 0v2h2V9h-2zM7 6H5v2h14V6h-2v1h-1V6H8v1H7V6zm7 5h2V9h-2v2z" id="ca"/></defs><g fill="none" fill-rule="evenodd"><path d="M0 0h24v22H0z"/><use fill="#2C404C" fill-rule="nonzero" xlink:href="#ca"/></g></svg><svg viewBox="-2 488 494 494" shape-rendering="geometricPrecision" text-rendering="geometricPrecision" width="494" height="494" id="front-line-main-logo" xmlns="http://www.w3.org/2000/svg"><g transform="matrix(1.00415 .0042 -.00416 .9958 4.156 0)"><rect width="1000" height="1000" rx="0" ry="0" fill="none"/><path d="M45.454 45.454h909.118v909.118H45.454V45.454Z" opacity=".08" fill="none"/><path d="M564.739 272.147v91.978l208.736 120.913 78.763-47.889-287.5-165.002Z" opacity=".08" fill="#a6ce39"/><path d="m775.75 724.48 81.812 51.727-5.325-339.058-78.762 47.889 2.275 239.442Z" opacity=".08" fill="#80c342"/><path d="m567.786 846.888 50.477-29.663-68.806-41.018 77.22-47.928 68.034 40.291 81.04-44.09 81.81 51.727-71.081 40.291 47.388 30.39.772 91.978-121.56-72.984-140.7 72.984-4.594-91.978Z" opacity=".08" fill="#409a3c"/><path d="m277.93 776.206 294.45 162.66-4.592-91.978-211.5-122.408-78.357 51.726Z" opacity=".08" fill="#316828"/><path d="M277.931 437.15v339.057l78.357-51.727V485.038l-78.357-47.889Z" opacity=".08" fill="#409a3c"/><path d="M564.739 272.147 277.93 437.149l78.356 47.889L564.74 364.125v-91.978Z" opacity=".08" fill="#80c342"/><path d="M450.78 62.084V161.7l208.126 118.368 79.088-46.798L450.779 62.084Z" opacity=".08" fill="#48c7e9"/><path d="m450.779 62.084-291.686 172.52 82.503 49.666 209.183-122.571V62.084Z" opacity=".08" fill="#0fa5e5"/><path d="m161.898 571.883 83.763-49.465-4.064-238.148-82.503-49.667 2.804 337.28Z" opacity=".08" fill="#086cb8"/><path d="m658.905 280.067 4.593 242.715 81.365 49.586-6.87-339.098-79.088 46.797Z" opacity=".08" fill="#0fa5e5"/><path d="m450.78 642.888 212.718-120.105 81.365 49.586-294.085 164.113.001-93.594Z" opacity=".08" fill="#086cb8"/><path d="m245.66 522.418 205.12 120.47v93.593L161.897 571.883l83.763-49.465Z" opacity=".08" fill="#00467d"/></g></svg><svg width="28" height="26" viewBox="-2 -2 28 26" id="icon-attach" x="494" y="26" xmlns="http://www.w3.org/2000/svg"><g fill="none" fill-rule="evenodd"><path d="M0 0h24v22H0z"/><path d="M14.91 6.636V15a2.908 2.908 0 1 1-5.82 0V5.91a1.819 1.819 0 0 1 3.637 0v7.635a.73.73 0 0 1-.727.728.73.73 0 0 1-.727-.728V6.636h-1.091v6.91a1.819 1.819 0 0 0 3.636 0V5.908A2.908 2.908 0 1 0 8 5.91V15c0 2.21 1.79 4 4 4s4-1.79 4-4V6.636h-1.09z" fill="#2C404C"/></g></svg><svg width="28" height="28" viewBox="-2 -2 28 28" id="icon-close" x="494" y="52" xmlns="http://www.w3.org/2000/svg"><g fill="none" fill-rule="evenodd"><path d="M0 0h24v24H0z"/><path d="M16.21 7.883a.66.66 0 0 0-.933 0l-3.23 3.23-3.232-3.23a.66.66 0 0 0-.932.932l3.23 3.231-3.23 3.231a.66.66 0 0 0 .932.933l3.231-3.231 3.231 3.23a.66.66 0 0 0 .933-.932l-3.231-3.23 3.23-3.232a.66.66 0 0 0 0-.932z" fill="#2C404C" fill-rule="nonzero"/></g></svg><svg width="22" height="22" viewBox="-2 -2 24 24" id="icon-close-small" x="494" y="276" xmlns="http://www.w3.org/2000/svg"><g fill="none" fill-rule="evenodd"><path d="M0 0h20v20H0z"/><path d="M15.78 4.312a.908.908 0 0 0-1.284 0l-4.45 4.45-4.45-4.45a.908.908 0 1 0-1.284 1.285l4.45 4.45-4.45 4.449a.908.908 0 0 0 1.285 1.284l4.45-4.45 4.449 4.45a.908.908 0 0 0 1.284-1.284l-4.45-4.45 4.45-4.45a.908.908 0 0 0 0-1.284z" fill="#000" fill-rule="nonzero"/></g></svg><svg width="22" height="22" viewBox="-2 -2 24 24" id="icon-close-small-hover" x="494" y="298" xmlns="http://www.w3.org/2000/svg"><g fill="none" fill-rule="evenodd"><path d="M0 0h20v20H0z"/><path d="M15.78 4.312a.908.908 0 0 0-1.284 0l-4.45 4.45-4.45-4.45a.908.908 0 1 0-1.284 1.285l4.45 4.45-4.45 4.449a.908.908 0 0 0 1.285 1.284l4.45-4.45 4.449 4.45a.908.908 0 0 0 1.284-1.284l-4.45-4.45 4.45-4.45a.908.908 0 0 0 0-1.284z" fill="#006CB7" fill-rule="nonzero"/></g></svg><svg width="28" height="28" viewBox="-2 -2 28 28" id="icon-delete" x="494" y="80" xmlns="http://www.w3.org/2000/svg"><defs><path d="M7 9v9.5c0 .3.2.5.5.5h9c.3 0 .5-.2.5-.5V9h1v9.5c0 .8-.7 1.5-1.5 1.5h-9c-.8 0-1.5-.7-1.5-1.5V9h1Zm4 2v5h-1v-5h1Zm3 0v5h-1v-5h1Zm1.9-4L15 4.3c-.1-.2-.3-.3-.5-.3h-5c-.2 0-.4.1-.5.3L8.1 7H4v1h16V7h-4.1Zm-6-2h4.3l.7 2H9.2l.7-2Z" id="ia"/></defs><g fill="none" fill-rule="evenodd"><path d="M0 0h24v24H0z"/><use fill="#2C404C" fill-rule="nonzero" xlink:href="#ia"/></g></svg><svg width="17" height="16" viewBox="-2 -2 17 16" id="icon-time" x="494" y="320" xmlns="http://www.w3.org/2000/svg"><g fill="#2C404C" fill-rule="evenodd"><path d="M6.5 0a6 6 0 1 1 0 12 6 6 0 0 1 0-12zm0 1a5 5 0 1 0 0 10 5 5 0 0 0 0-10z" fill-rule="nonzero"/><path d="M6.5 3a.5.5 0 0 1 .5.5v3a.5.5 0 0 1-1 0v-3a.5.5 0 0 1 .5-.5z"/><path d="M10 6.5a.5.5 0 0 1-.5.5h-3a.5.5 0 0 1 0-1h3a.5.5 0 0 1 .5.5z"/></g></svg><svg width="24" height="24" viewBox="-2 -2 24 24" id="item_check" x="494" y="108" xmlns="http://www.w3.org/2000/svg"><g fill="none" fill-rule="evenodd"><rect fill="#006CB7" width="20" height="20" rx="3"/><path fill="#FFF" fill-rule="nonzero" d="m13.994 6.076 1.594 1.606-7.017 7.017-4.16-4.16 1.596-1.597L8.57 11.5z"/></g></svg><svg width="24" height="24" viewBox="-2 -2 24 24" id="item_unchecked" x="494" y="132" xmlns="http://www.w3.org/2000/svg"><rect x=".5" y=".5" width="19" height="19" rx="3" fill="#FFF" stroke="#C2CED6" fill-rule="evenodd"/></svg><svg width="24" height="24" viewBox="-2 -2 24 24" id="menu-icon-administration" x="494" y="156" xmlns="http://www.w3.org/2000/svg"><g fill="none" fill-rule="evenodd"><path d="M0 0h20v20H0z"/><g fill-rule="nonzero"><path d="M12.815 1.3C12.383.53 11.207 0 9.73 0 8.252 0 7.076.53 6.644 1.3H3.84a1.96 1.96 0 0 0-1.964 1.952v14.36a1.96 1.96 0 0 0 1.964 1.95h11.78a1.96 1.96 0 0 0 1.964-1.95V3.251A1.96 1.96 0 0 0 15.62 1.3h-2.805zm-3.066.01a.655.655 0 1 1 0 1.308.655.655 0 0 1 0-1.309z" fill="#FFF"/><path d="M15.319 17.875H4.18a.624.624 0 0 1-.619-.627V3.44c0-.346.278-.627.62-.627h2.474v.627c0 .347.277.627.619.627h4.95c.342 0 .619-.28.619-.627v-.627h2.475c.341 0 .618.28.618.627v13.808a.624.624 0 0 1-.618.627z" fill="#316828"/><path d="M9.597 12.337v1.31H5.67v-1.31h3.927zm3.883-2.924v1.309H5.625v-1.31h7.855zm0-3.163v1.31H5.625V6.25h7.855z" fill="#FFF"/></g></g></svg><svg width="24" height="24" viewBox="-2 -2 24 24" id="menu-icon-operations" x="494" y="180" xmlns="http://www.w3.org/2000/svg"><g fill="none"><path d="m8.6 0-.688 2.429a7.813 7.813 0 0 0-1.79.739l-2.209-1.23L1.94 3.914l1.229 2.21a7.813 7.813 0 0 0-.739 1.789L0 8.6v2.798l2.429.69c.174.63.422 1.232.739 1.789l-1.23 2.209 1.975 1.974 2.21-1.229a7.814 7.814 0 0 0 1.789.739L8.6 20h2.798l.69-2.429a7.814 7.814 0 0 0 1.789-.739l2.209 1.23 1.974-1.975-1.229-2.21a7.813 7.813 0 0 0 .739-1.789L20 11.4V8.601l-2.429-.69a7.813 7.813 0 0 0-.739-1.789l1.23-2.209-1.975-1.974-2.21 1.229a7.813 7.813 0 0 0-1.789-.739L11.4 0H8.601z" fill="#FFF"/><path d="M10 5c2.753 0 5 2.247 5 5s-2.247 5-5 5a5.01 5.01 0 0 1-5-5c0-2.753 2.247-5 5-5zm0 2a2.99 2.99 0 0 0-3 3c0 1.663 1.336 3 3 3s3-1.337 3-3c0-1.664-1.336-3-3-3z" fill="#006CB7"/></g></svg><svg width="24" height="24" viewBox="-2 -2 24 24" id="radio-checked-blue" x="494" y="204" xmlns="http://www.w3.org/2000/svg"><g fill="none" fill-rule="evenodd"><circle stroke="#C2CED6" fill="#FFF" cx="10" cy="10" r="9.5"/><circle fill="#256496" cx="10" cy="10" r="7"/></g></svg><svg width="24" height="24" viewBox="-2 -2 24 24" id="radio-checked-green" x="494" y="228" xmlns="http://www.w3.org/2000/svg"><g fill="none" fill-rule="evenodd"><circle stroke="#C2CED6" fill="#FFF" cx="10" cy="10" r="9.5"/><circle fill="#7ABF77" cx="10" cy="10" r="7"/></g></svg><svg width="24" height="24" viewBox="-2 -2 24 24" id="radio-unchecked" x="494" y="252" xmlns="http://www.w3.org/2000/svg"><circle cx="10" cy="10" r="9.5" fill="#FFF" stroke="#C2CED6" fill-rule="evenodd"/></svg><svg width="13" height="12" viewBox="-2 -2 13 12" id="sort_asc" x="494" y="347" xmlns="http://www.w3.org/2000/svg"><path fill="#CCC" d="M1 5h7v1H1zM2 4h4v1H2zM2 3h4v1H2zM3 2h2v1H3zM3 1h2v1H3z"/><path fill="#666" d="M1 3h1v2H1z"/><path fill="#FFF" d="M5 1h1v2H5zM6 3h1v2H6z"/><path fill="#666" d="M2 1h1v2H2zM0 5h1v2H0zM3 0h1v1H3z"/><path fill="#FFF" d="M4 0h1v1H4zM1 6h7v1H1zM7 5h1v1H7z"/></svg><svg width="13" height="12" viewBox="-2 -2 13 12" id="sort_desc" x="507" y="347" xmlns="http://www.w3.org/2000/svg"><path fill="#CCC" d="M1 1h7v1H1zM2 2h4v1H2zM2 3h4v1H2zM3 4h2v1H3zM3 5h2v1H3z"/><path fill="#666" d="M1 2h1v2H1z"/><path fill="#FFF" d="M5 4h1v2H5zM6 2h1v2H6z"/><path fill="#666" d="M2 4h1v2H2zM0 0h1v2H0zM3 6h1v1H3z"/><path fill="#FFF" d="M4 6h1v1H4z"/><path fill="#666" d="M1 0h6v1H1z"/><path fill="#FFF" d="M7 0h1v2H7z"/></svg></svg>