<svg width="20" height="20" viewBox="0 0 20 20" xmlns="http://www.w3.org/2000/svg">
    <g fill="none" fill-rule="evenodd">
        <path d="M0 0h20v20H0z"/>
        <g fill-rule="nonzero">
            <path d="M12.815 1.3C12.383.53 11.207 0 9.73 0 8.252 0 7.076.53 6.644 1.3H3.84a1.96 1.96 0 0 0-1.964 1.952v14.36a1.96 1.96 0 0 0 1.964 1.95H15.62a1.96 1.96 0 0 0 1.964-1.95V3.251a1.96 1.96 0 0 0-1.964-1.951h-2.805zm-3.066.01a.655.655 0 1 1 0 1.308.655.655 0 0 1 0-1.309z" fill="#FFF"/>
            <path d="M15.319 17.875H4.18a.624.624 0 0 1-.619-.627V3.44c0-.346.278-.627.62-.627h2.474v.627c0 .347.277.627.619.627h4.95c.342 0 .619-.28.619-.627v-.627h2.475c.341 0 .618.28.618.627v13.808a.624.624 0 0 1-.618.627z" fill="#316828"/>
            <path d="M9.597 12.337v1.31H5.67v-1.31h3.927zm3.883-2.924v1.309H5.625v-1.31h7.855zm0-3.163v1.31H5.625V6.25h7.855z" fill="#FFF"/>
        </g>
    </g>
</svg>
