<svg width="24" height="22" viewBox="0 0 24 22" xmlns="http://www.w3.org/2000/svg" xmlns:xlink="http://www.w3.org/1999/xlink">
    <defs>
        <path d="M8 4v1h8V4h1v1h2.5a.5.5 0 0 1 .5.5v12a.5.5 0 0 1-.5.5h-15a.5.5 0 0 1-.5-.5v-12a.5.5 0 0 1 .5-.5H7V4h1zm11 11h-2v2h2v-2zM7 15H5v2h2v-2zm3 0H8v2h2v-2zm3 0h-2v2h2v-2zm3 0h-2v2h2v-2zm-9-3H5v2h2v-2zm12 0h-2v2h2v-2zm-9 0H8v2h2v-2zm3 0h-2v2h2v-2zm3 0h-2v2h2v-2zM7 9H5v2h2V9zm12 0h-2v2h2V9zm-9 0H8v2h2V9zm1 0v2h2V9h-2zM7 6H5v2h14V6h-2v1h-1V6H8v1H7V6zm7 5h2V9h-2v2z" id="z1ovunmj6a"/>
    </defs>
    <g fill="none" fill-rule="evenodd">
        <path d="M0 0h24v22H0z"/>
        <use fill="#2C404C" fill-rule="nonzero" xlink:href="#z1ovunmj6a"/>
    </g>
</svg>
