<svg width="20" height="20" viewBox="0 0 20 20" xmlns="http://www.w3.org/2000/svg">
    <g fill-rule="nonzero" fill="none">
        <path d="m8.6 0-.688 2.429a7.813 7.813 0 0 0-1.79.739l-2.209-1.23L1.94 3.914l1.229 2.21a7.813 7.813 0 0 0-.739 1.789L0 8.6v2.798l2.429.69c.174.63.422 1.232.739 1.789l-1.23 2.209 1.975 1.974 2.21-1.229a7.814 7.814 0 0 0 1.789.739L8.6 20h2.798l.69-2.429a7.814 7.814 0 0 0 1.789-.739l2.209 1.23 1.974-1.975-1.229-2.21a7.813 7.813 0 0 0 .739-1.789L20 11.4V8.601l-2.429-.69a7.813 7.813 0 0 0-.739-1.789l1.23-2.209-1.975-1.974-2.21 1.229a7.813 7.813 0 0 0-1.789-.739L11.4 0H8.601z" fill="#FFF"/>
        <path d="M10 5c2.753 0 5 2.247 5 5s-2.247 5-5 5a5.01 5.01 0 0 1-5-5c0-2.753 2.247-5 5-5zm0 2c-1.664 0-3 1.336-3 3 0 1.663 1.336 3 3 3s3-1.337 3-3c0-1.664-1.336-3-3-3z" fill="#006CB7"/>
    </g>
</svg>
